<svg xmlns="http://www.w3.org/2000/svg" width="85.023" height="27.814" viewBox="0 0 85.023 27.814">
  <g id="Group_226814" data-name="Group 226814" transform="translate(50 -163.31)">
    <path id="Path_257776" data-name="Path 257776" d="M88.834,64.413s-.679,1.511-1.121,2.4a47.079,47.079,0,0,1-6,9.048,46.381,46.381,0,0,1-67.7,3.243A45.994,45.994,0,0,1,4.65,66.216c-.247-.5-.84-1.8-.84-1.8Z" transform="translate(-53.811 98.896)" opacity="0.35"/>
    <g id="photo-camera-interface-symbol-for-button" transform="translate(-15 170.905)">
      <path id="Path_123881" data-name="Path 123881" d="M10.252,10.718a2.5,2.5,0,1,1-2.5-2.5A2.5,2.5,0,0,1,10.252,10.718ZM15.5,7.167v7.1a1.714,1.714,0,0,1-1.714,1.714H1.714A1.714,1.714,0,0,1,0,14.269v-7.1A1.714,1.714,0,0,1,1.714,5.453H3.823V4.86a1.5,1.5,0,0,1,1.5-1.5H10.18a1.5,1.5,0,0,1,1.5,1.5v.593h2.109A1.715,1.715,0,0,1,15.5,7.167Zm-3.966,3.55A3.786,3.786,0,1,0,7.752,14.5,3.79,3.79,0,0,0,11.538,10.718Z" transform="translate(0 -3.36)" fill="#fff"/>
    </g>
  </g>
</svg>
