<svg id="photo-camera-interface-symbol-for-button" xmlns="http://www.w3.org/2000/svg" width="15.503" height="12.623" viewBox="0 0 15.503 12.623">
  <path id="Path_123881" data-name="Path 123881" d="M10.252,10.718a2.5,2.5,0,1,1-2.5-2.5A2.5,2.5,0,0,1,10.252,10.718ZM15.5,7.167v7.1a1.714,1.714,0,0,1-1.714,1.714H1.714A1.714,1.714,0,0,1,0,14.269v-7.1A1.714,1.714,0,0,1,1.714,5.453H3.823V4.86a1.5,1.5,0,0,1,1.5-1.5H10.18a1.5,1.5,0,0,1,1.5,1.5v.593h2.109A1.715,1.715,0,0,1,15.5,7.167Zm-3.966,3.55A3.786,3.786,0,1,0,7.752,14.5,3.79,3.79,0,0,0,11.538,10.718Z" transform="translate(0 -3.36)" fill="#fff"/>
</svg>
