<svg xmlns="http://www.w3.org/2000/svg" width="63.764" height="58.449" viewBox="0 0 63.764 58.449">
  <g id="checkmark" transform="translate(0 -0.008)">
    <path id="Path_12670" data-name="Path 12670" d="M29.225,58.457A29.224,29.224,0,1,1,44.99,4.628a1.994,1.994,0,0,1-2.155,3.356A25.235,25.235,0,1,0,54.464,29.233c0-.832-.04-1.655-.117-2.465a1.993,1.993,0,1,1,3.967-.385q.135,1.407.135,2.851A29.258,29.258,0,0,1,29.225,58.457Zm0,0" fill="#1aa9c9"/>
    <path id="Path_12671" data-name="Path 12671" d="M163.287,54.556a1.978,1.978,0,0,1-1.408-.584L149.924,42.017a1.993,1.993,0,1,1,2.819-2.819L163.29,49.745,191.1,21.931a1.993,1.993,0,1,1,2.819,2.819L164.7,53.975a2,2,0,0,1-1.411.582Zm0,0" transform="translate(-130.742 -18.682)" fill="#1aa9c9"/>
  </g>
</svg>
