<svg xmlns="http://www.w3.org/2000/svg" width="78.196" height="78.192" viewBox="0 0 78.196 78.192">
  <g id="party-popper" transform="translate(-1.998 -1.92)">
    <path id="Path_134469" data-name="Path 134469" d="M37.1,35.153c-3.055,1.125-6.933,2.551-11.84,4.369-8.379-1.17-17.183-3.9-20.99-10.152,1.387-3.734,2.6-7.006,3.664-9.893C15.1,27.763,27.638,33.026,37.1,35.153Z" transform="translate(4.048 31.329)" fill="#61693b"/>
    <path id="Path_134470" data-name="Path 134470" d="M36.1,22.314c-8.153-8.15-18.651-14.171-22.931-9.882-.913.913-.638.368-6.984,17.59C12.954,39.787,30.051,46.606,41.961,47.2c3.561-1.339,3.478-1.406,4.026-1.958C51.236,40,41.348,27.557,36.1,22.314ZM43.03,42.29c-.4.4-2.25.423-5.538-1.2a46.35,46.35,0,0,1-11.486-8.682c-8.877-8.877-10.952-15.955-9.882-17.025a1.307,1.307,0,0,1,.922-.256c2.4,0,8.61,2.648,16.106,10.141a46.367,46.367,0,0,1,8.685,11.486C43.459,40.038,43.431,41.892,43.03,42.29Z" transform="translate(7.476 16.219)" fill="#61693b"/>
    <path id="Path_134471" data-name="Path 134471" d="M21.659,33c-4.823,1.793-10.384,3.87-16.841,6.29a2.089,2.089,0,0,1-2.684-2.684c1.626-4.355,3.094-8.292,4.43-11.884C10.234,28.937,15.753,31.493,21.659,33Z" transform="translate(0 40.689)" fill="#61693b"/>
    <path id="Path_134472" data-name="Path 134472" d="M29.936,7.419a13.5,13.5,0,0,0-3.408.863c1.281,1.966,3.957,4.469,2.322,7.738-1.462,2.924-4.5,2.751-7.137,2.843,1.618,2.211,3.489,4.452,2.047,7.34-1.5,2.993-5.416,3.614-7.73,3.99a1.385,1.385,0,0,1-1.584-1.122l-.507-2.734a1.4,1.4,0,0,1,1.131-1.626,13.378,13.378,0,0,0,3.408-.863c-1.286-1.952-3.951-4.48-2.325-7.735,1.459-2.915,4.494-2.751,7.137-2.843-1.621-2.211-3.489-4.452-2.047-7.34,1.5-2.991,5.419-3.614,7.727-3.99a1.381,1.381,0,0,1,1.582,1.122L31.058,5.8a1.382,1.382,0,0,1-1.122,1.623Z" transform="translate(21.266 0)" fill="#61693b"/>
    <path id="Path_134473" data-name="Path 134473" d="M44.337,11.94l2.734.507a1.382,1.382,0,0,1,1.122,1.582c-.376,2.308-1,6.232-3.99,7.727-2.888,1.442-5.129-.426-7.34-2.047-.092,2.643.072,5.68-2.843,7.137-3.255,1.626-5.783-1.039-7.735-2.325a13.378,13.378,0,0,0-.863,3.408A1.394,1.394,0,0,1,23.8,29.059l-2.734-.507a1.383,1.383,0,0,1-1.122-1.584c.376-2.311,1-6.232,3.99-7.73,2.885-1.442,5.129.429,7.34,2.047.092-2.637-.081-5.678,2.843-7.137,3.269-1.635,5.772,1.041,7.738,2.322a13.5,13.5,0,0,0,.863-3.408,1.391,1.391,0,0,1,1.623-1.122Z" transform="translate(31.982 17.839)" fill="#61693b"/>
    <path id="Path_134474" data-name="Path 134474" d="M29.626,23.677H24.335a.834.834,0,0,1-.835-.835V20.335a.834.834,0,0,1,.835-.835h5.291a.834.834,0,0,1,.835.835v2.506A.834.834,0,0,1,29.626,23.677Z" transform="translate(38.37 31.371)" fill="#61693b"/>
    <path id="Path_134475" data-name="Path 134475" d="M32.235,5.323,28.492,9.065a.835.835,0,0,1-1.181,0L25.541,7.292a.835.835,0,0,1,0-1.181l3.742-3.742a.835.835,0,0,1,1.181,0L32.235,4.14A.839.839,0,0,1,32.235,5.323Z" transform="translate(41.576 0.364)" fill="#61693b"/>
    <path id="Path_134476" data-name="Path 134476" d="M14.341,10.961H11.835A.834.834,0,0,1,11,10.126V4.835A.834.834,0,0,1,11.835,4h2.506a.834.834,0,0,1,.835.835v5.291A.834.834,0,0,1,14.341,10.961Z" transform="translate(16.064 3.711)" fill="#61693b"/>
    <path id="Path_134477" data-name="Path 134477" d="M20.968,25.747l-2.088-1.392a.84.84,0,0,1-.237-1.178c5.683-8.086,16.64-16.515,28.232-16.922a.857.857,0,0,1,.872.855V9.619a.816.816,0,0,1-.8.813c-9.7.384-19.634,7.688-24.86,15.1A.807.807,0,0,1,20.968,25.747Z" transform="translate(29.439 7.735)" fill="#61693b"/>
  </g>
</svg>
