<svg id="earth" xmlns="http://www.w3.org/2000/svg" width="24" height="24" viewBox="0 0 24 24">
  <g id="Group_226132" data-name="Group 226132">
    <path id="Path_257812" data-name="Path 257812" d="M35,10.12l.023.178-.267.055-.036.38h.32l.425-.041.22-.261-.233-.091-.128-.147-.192-.311-.092-.44-.361.074-.1.155v.175l.174.119Z" transform="translate(-17.511 -4.782)" fill="#1a192f"/>
    <path id="Path_257813" data-name="Path 257813" d="M34.082,10.773l.019-.238-.212-.091-.3.069-.22.352v.229h.256Z" transform="translate(-16.901 -5.289)" fill="#1a192f"/>
    <path id="Path_257814" data-name="Path 257814" d="M22.069,13.155,22,13.323h-.315v.163h.075s0,.035.011.08l.193-.016.121-.075.032-.152.156-.013.062-.127-.144-.03Z" transform="translate(-10.983 -6.661)" fill="#1a192f"/>
    <path id="Path_257815" data-name="Path 257815" d="M20.8,13.626l-.012.159.229-.019.024-.16L20.9,13.5Z" transform="translate(-10.527 -6.836)" fill="#1a192f"/>
    <path id="Path_257816" data-name="Path 257816" d="M24,11.876c0-.351-.021-.7-.054-1.042a11.927,11.927,0,0,0-.794-3.267c-.031-.077-.059-.154-.091-.23a12.014,12.014,0,0,0-2.251-3.477c-.062-.066-.124-.131-.187-.2-.177-.184-.359-.364-.548-.536a11.976,11.976,0,0,0-16.2.051A12.142,12.142,0,0,0,2.5,4.677,11.994,11.994,0,1,0,22.685,17.451a11.886,11.886,0,0,0,.98-2.643c.057-.235.106-.472.148-.711A12,12,0,0,0,24,12C24,11.958,24,11.917,24,11.876Zm-2.259-4.8L21.808,7c.091.177.177.357.258.54l-.114,0-.214.03ZM20,4.986l0-.536q.283.3.544.619l-.216.322-.756-.007-.047-.157ZM5.529,3.654v-.02h.24l.021-.082h.393v.172l-.113.151H5.529v-.22Zm.384.536s.24-.041.261-.041,0,.24,0,.24l-.542.034-.1-.123ZM22.5,8.953h-.878l-.535-.4-.563.055v.344h-.178l-.192-.137-.975-.247V7.937l-1.236.1-.383.206h-.491l-.24-.024-.6.331v.622l-1.218.879.1.375h.247l-.065.357-.174.064-.009.934,1.052,1.2h.458l.028-.073h.823l.237-.22h.467l.256.257.7.072-.092.925.772,1.364-.407.777.028.366.32.319v.881l.421.566v.731h.363A11.008,11.008,0,0,1,1.866,7.69V7.346l.394-.478q.205-.387.44-.755l.018.2-.457.555c-.142.268-.274.541-.394.822v.627l.458.22v.871l.439.749.357.055.046-.257-.421-.65-.082-.631h.247l.1.65.609.888-.157.287.387.592.961.238v-.155l.384.055-.037.274.3.055.466.127.659.751.842.064.082.687-.576.4-.027.613-.082.375.833,1.043.064.357s.3.082.339.082.677.485.677.485v1.885l.229.064-.155.87.384.513-.071.862.508.893.652.57.655.012L11.006,22l-.482-.406.028-.2.086-.247.018-.252-.326-.01-.164-.206.27-.26.037-.2-.3-.086.018-.183.43-.065.654-.314.22-.4.687-.879-.156-.687.211-.366.631.019.425-.337.137-1.326L13.9,15l.082-.384-.43-.138-.284-.465L12.3,14l-.769-.293-.037-.548-.257-.449-.7-.01-.4-.631-.357-.174-.018.192-.65.038-.238-.331L8.2,11.657l-.558.645-.879-.149-.064-.99-.641-.11.257-.486-.074-.279-.843.563-.53-.065-.189-.414.115-.427.292-.538.673-.341h1.3l0,.4.467.217L7.485,9l.337-.339L8.5,8.218,8.547,7.9l.677-.7.72-.4-.064-.052.488-.459.179.047.082.1.185-.205.045-.02-.2-.029-.206-.069v-.2l.109-.089h.24l.11.048.1.192.116-.018V6.036l.034.011L11.493,6l.048-.165.192.048v.179l-.179.123h0l.026.2.612.189v.007l.141-.012.009-.265-.485-.221-.028-.127.4-.137.018-.385-.421-.256L11.8,4.52l-.576.283h-.21l.055-.494-.785-.185-.325.245v.748L9.379,5.3l-.234.488-.254.041V5.208l-.549-.076-.274-.179-.111-.4.982-.575.48-.146.048.323.268-.014.021-.162.28-.04,0-.057-.12-.05-.028-.172.344-.029.208-.216.011-.016h0l.063-.065.723-.091.32.271-.839.447,1.067.252.138-.357H12.4l.165-.311-.33-.082V3.066L11.2,2.608l-.714.082-.4.211.028.512-.421-.064-.065-.283.4-.366L9.3,2.663l-.21.064-.091.247.274.046-.055.274-.466.028L8.675,3.5,8,3.524a1.855,1.855,0,0,0-.046-.384l.531-.009.4-.394-.22-.11-.293.284-.486-.028-.293-.4H6.972l-.65.485h.6l.054.174-.154.144.659.018.1.238-.742-.028L6.8,3.329l-.466-.1-.247-.137-.555,0a10.981,10.981,0,0,1,13.74.643l-.131.234-.508.2-.214.232.049.271.262.037.158.395.452-.182.075.528h-.136L18.906,5.4l-.412.069-.4.563-.57.089-.082.488.24.057-.07.313-.566-.114-.519.114-.11.289.09.606.3.143.511,0,.345-.031.105-.274.539-.7.355.073.349-.316.065.247.86.58-.105.141-.387-.021.149.211.238.052.279-.116-.006-.337.124-.062-.1-.106-.574-.32-.151-.425h.477l.153.151.411.354.017.428.425.453.158-.621.295-.161.055.508.288.316.574-.01q.167.429.3.873ZM6.545,5.452l.288-.137.261.062L7,5.727l-.281.089Zm1.53.824V6.5H7.416L7.17,6.434l.062-.158.316-.131H7.98v.131Zm.3.316v.22l-.165.106-.205.038V6.592ZM8.192,6.5V6.241l.227.206Zm.1.528v.214L8.138,7.4h-.35l.055-.24.165-.014.034-.082Zm-.872-.439h.364l-.466.652-.192-.1.041-.274Zm1.49.364v.213h-.35l-.1-.138v-.2H8.5ZM8.59,6.662l.1-.1.168.1-.135.111ZM22.682,9.509l.035-.04c.014.062.03.124.043.188Z" fill="#1a192f"/>
    <path id="Path_257817" data-name="Path 257817" d="M3.782,14.393v.344c.12-.28.252-.554.394-.822Z" transform="translate(-1.915 -7.047)" fill="#1a192f"/>
  </g>
</svg>
