<svg id="Group_226776" data-name="Group 226776" xmlns="http://www.w3.org/2000/svg" width="74.941" height="24.726" viewBox="0 0 74.941 24.726">
  <path id="Path_259716" data-name="Path 259716" d="M353.8,360.595l-11.5,2.825-.148.48,12.2-2.806Z" transform="translate(-338.446 -352.577)" fill="#44333f"/>
  <path id="Path_259717" data-name="Path 259717" d="M94.295,361.276l-18.241-2.013-.434.517,19.1,2.16Z" transform="translate(-27.043 -351.504)" fill="#725e6d"/>
  <path id="Path_259718" data-name="Path 259718" d="M158.974,414.395h-1.828a1.3,1.3,0,0,0-1.3,1.3h0a1.3,1.3,0,0,0,1.3,1.3h1.828a1.3,1.3,0,0,0,1.3-1.3h0A1.3,1.3,0,0,0,158.974,414.395Z" transform="translate(-108.182 -395.927)" fill="#1c171a"/>
  <path id="Path_259719" data-name="Path 259719" d="M265.974,414.395h-7.311a1.3,1.3,0,0,0-1.3,1.3h0a1.3,1.3,0,0,0,1.3,1.3h7.311a1.3,1.3,0,0,0,1.3-1.3h0A1.3,1.3,0,0,0,265.974,414.395Z" transform="translate(-234.901 -395.927)" fill="#1c171a"/>
  <path id="Path_259720" data-name="Path 259720" d="M63.355,375.927l-.234-.006.763,7.574,2.088.054-1.009-6.074A1.76,1.76,0,0,0,63.355,375.927Z" transform="translate(4.132 -364.926)" fill="#8e7d7d"/>
  <path id="Path_259721" data-name="Path 259721" d="M131.131,414.277H70.039l1.2,2.307h59.074Z" transform="translate(-62.37 -395.832)" fill="#1c171a"/>
  <path id="Path_259722" data-name="Path 259722" d="M131.156,330.251a.912.912,0,0,0-.784-.861l-18.778-1.8c-1.313-2.217-3.862-6.471-4.849-8.259a186.888,186.888,0,0,0-23.309,1.031l-4.8,7.269L66.807,330.6c-.635.872.807,6.157,2.23,8.487l63.4.129Z" transform="translate(-63.019 -319.315)" fill="#63505c"/>
  <path id="Path_259723" data-name="Path 259723" d="M310.036,321.834c-1.948.107-6.294.574-6.294.574l-4.7,7.19-11.827,2.965c-.635.872.81,6.286,2.234,8.616l16.438-7.92Z" transform="translate(-283.431 -321.345)" fill="#51404b"/>
  <path id="Path_259724" data-name="Path 259724" d="M131.513,363.562,80,361.8,67.947,364.77c-.635.872.81,6.286,2.234,8.616h63.4l-1.28-8.963A.911.911,0,0,0,131.513,363.562Z" transform="translate(-64.38 -353.552)" fill="#51404b"/>
  <path id="Path_259725" data-name="Path 259725" d="M67.793,399.375a19.15,19.15,0,0,0,1.731,4.283h63.4l-.612-4.283Z" transform="translate(-63.724 -383.824)" fill="#5b4855"/>
  <path id="Path_259726" data-name="Path 259726" d="M136.011,364.1a.858.858,0,0,0-.7-.538c-12.854-.92-51.517-1.757-51.517-1.757l-9,2.294Z" transform="translate(-68.175 -353.552)" fill="#44333f"/>
  <path id="Path_259727" data-name="Path 259727" d="M328.87,392.781a5.806,5.806,0,1,0-11.45-1.858,5.684,5.684,0,0,0,.105,1.858Z" transform="translate(-308.293 -372.873)" fill="#725e6d"/>
  <path id="Path_259728" data-name="Path 259728" d="M94.469,392.781a5.806,5.806,0,1,0-11.45-1.858,5.684,5.684,0,0,0,.105,1.858Z" transform="translate(-28.363 -372.873)" fill="#725e6d"/>
  <path id="Path_259729" data-name="Path 259729" d="M94.586,394.857a5.6,5.6,0,0,0,.1-.605,5.4,5.4,0,1,0-10.741-1.164,5.544,5.544,0,0,0,.1,1.77Z" transform="translate(-28.651 -374.813)" fill="#1c171a"/>
  <path id="Path_259730" data-name="Path 259730" d="M357.612,414.243h7.8l-.047,1.507h-7.436a.376.376,0,0,1-.346-.229l-.321-.755A.376.376,0,0,1,357.612,414.243Z" transform="translate(-352.442 -395.804)" fill="#c9c2af"/>
  <path id="Path_259731" data-name="Path 259731" d="M364.793,414.243l-.026.842H357.33a.376.376,0,0,1-.094-.014l.192.45a.376.376,0,0,0,.346.229h7.436l.047-1.507Z" transform="translate(-352.282 -395.804)" fill="#afa58c"/>
  <path id="Path_259732" data-name="Path 259732" d="M329.373,394.919c.035-.173.063-.349.082-.528a5.369,5.369,0,1,0-10.673-1.157,5.512,5.512,0,0,0,.081,1.685Z" transform="translate(-309.034 -374.955)" fill="#1c171a"/>
  <path id="Path_259733" data-name="Path 259733" d="M61.264,411.521H56.414l-.025,1.272a1.226,1.226,0,0,0,1.3,1.254h3.457a.651.651,0,0,0,.589-.646l.093-1.129A.642.642,0,0,0,61.264,411.521Z" transform="translate(9.583 -393.611)" fill="#c9c2af"/>
  <path id="Path_259734" data-name="Path 259734" d="M62.189,412.755h-4.6l.024-1.234h-.8l-.2,1.617a.8.8,0,0,0,.837.909h4.095a.651.651,0,0,0,.589-.646Z" transform="translate(9.18 -393.611)" fill="#afa58c"/>
  <path id="Path_259735" data-name="Path 259735" d="M174.247,332.117l22.938.538-4.057-6.934-17.681.765Z" transform="translate(-148.666 -324.476)" fill="#51a8bf"/>
  <g id="Group_226766" data-name="Group 226766" transform="translate(28.4 2.216)">
    <path id="Path_259736" data-name="Path 259736" d="M270.373,333.87l-1.184.05-.613,3.226h1.8Z" transform="translate(-268.577 -333.259)" fill="#66c3d8"/>
    <g id="Group_226765" data-name="Group 226765" transform="translate(4.898 0)">
      <path id="Path_259737" data-name="Path 259737" d="M182.762,334.612h.764l-2.335-3.887-.728.031Z" transform="translate(-169.513 -330.725)" fill="#66c3d8"/>
      <path id="Path_259738" data-name="Path 259738" d="M212.791,331.709l-6.864.289V335.4h9.067Z" transform="translate(-205.927 -331.518)" fill="#66c3d8"/>
    </g>
  </g>
  <path id="Path_259739" data-name="Path 259739" d="M175.3,331.36l.954-4.444,17.175-.86-.36-.569-17.655.8-1.172,5.64,22.938.538-.468-.8Z" transform="translate(-148.666 -324.288)" fill="#3a85aa"/>
  <path id="Path_259740" data-name="Path 259740" d="M259.753,330.52l-1.38,0-.85,5.281,1.593,0Z" transform="translate(-227.409 -328.342)" fill="#3a85aa"/>
  <path id="Path_259741" data-name="Path 259741" d="M183.571,327.669h-1.523l3.129,6h1.681Z" transform="translate(-139.854 -326.046)" fill="#3a85aa"/>
  <path id="Path_259742" data-name="Path 259742" d="M174.365,331.253l1.146-5.329,17.581-.674-.215-.368-17.752.757-1.172,5.913,23.134.526-.2-.345Z" transform="translate(-148.509 -323.8)" fill="#2b1f27"/>
  <path id="Path_259743" data-name="Path 259743" d="M260.785,326.673h-.692l-.887,6.8h.913Z" transform="translate(-228.768 -325.243)" fill="#63505c"/>
  <path id="Path_259744" data-name="Path 259744" d="M182.106,319.782h-.692l4.356,8.336h.913Z" transform="translate(-139.556 -319.69)" fill="#63505c"/>
  <path id="Path_259745" data-name="Path 259745" d="M113.157,440.961H38.216s12.634,1.1,40.858,1.1S113.157,440.961,113.157,440.961Z" transform="translate(-38.216 -417.332)" fill="#f1f1f1"/>
  <path id="Path_259746" data-name="Path 259746" d="M71.919,374.567H70.867l.739,4.893h1.052Z" transform="translate(-4.058 -363.835)" fill="#44333f"/>
  <path id="Path_259747" data-name="Path 259747" d="M71.206,375.7h0l.571,4.147H72.4l-.466-3.5A.739.739,0,0,0,71.206,375.7Z" transform="translate(-3.871 -364.751)" fill="#c9c2af"/>
  <path id="Path_259748" data-name="Path 259748" d="M71.427,388.35h-.7l.256,1.709h.7Z" transform="translate(-3.056 -374.941)" fill="#e0ba5c"/>
  <path id="Path_259749" data-name="Path 259749" d="M72.48,385.89h-.752l.081.587h.752Z" transform="translate(-4.129 -372.958)" fill="#cc4458"/>
  <path id="Path_259750" data-name="Path 259750" d="M90.4,376.469H88.356l.128,1.106h2.042Z" transform="translate(-25.324 -365.367)" fill="#33242f"/>
  <path id="Path_259751" data-name="Path 259751" d="M90.8,377.234H89.167l.1.726H90.9Z" transform="translate(-25.857 -365.983)" fill="#e0ba5c"/>
  <path id="Path_259752" data-name="Path 259752" d="M91.452,377.644h-.983l.061.437h.983Z" transform="translate(-26.722 -366.315)" fill="#fff5aa"/>
  <g id="Group_226767" data-name="Group 226767" transform="translate(31.246 7.671)">
    <path id="Path_259753" data-name="Path 259753" d="M198.072,370.063H183.818l-.552-10.118.171-1.139.317.046-.211,1.114.706,9.878h13.457l.816-9.39-.685-1.232.211.006.739,1.222Z" transform="translate(-183.266 -358.807)" fill="#2b1f27"/>
  </g>
  <path id="Path_259754" data-name="Path 259754" d="M243.223,365.775l-3.637-.332.092,1.514h3.545Z" transform="translate(-207.395 -356.483)" fill="#2b1f27"/>
  <path id="Path_259755" data-name="Path 259755" d="M244.317,365.112l-3.211-.261.081,1.19h3.129Z" transform="translate(-208.785 -356.006)" fill="#44333f"/>
  <g id="Group_226771" data-name="Group 226771" transform="translate(10.292 14.005)">
    <ellipse id="Ellipse_5444" data-name="Ellipse 5444" cx="4.784" cy="4.852" rx="4.784" ry="4.852" transform="translate(0 0)" fill="#3f3232"/>
    <ellipse id="Ellipse_5445" data-name="Ellipse 5445" cx="4.479" cy="4.543" rx="4.479" ry="4.543" transform="translate(0.305 0.29)" fill="#4f4141"/>
    <ellipse id="Ellipse_5446" data-name="Ellipse 5446" cx="3.778" cy="3.832" rx="3.778" ry="3.832" transform="translate(1.006 1.02)" fill="#231a1a"/>
    <path id="Path_259756" data-name="Path 259756" d="M332.287,399.717a3.522,3.522,0,1,0,3.106,3.876A3.506,3.506,0,0,0,332.287,399.717Z" transform="translate(-327.132 -398.089)" fill="#352929"/>
    <path id="Path_259757" data-name="Path 259757" d="M337.632,407.346a2.788,2.788,0,1,1-2.475-3.111A2.8,2.8,0,0,1,337.632,407.346Z" transform="translate(-330.077 -401.732)" fill="#231a1a"/>
    <g id="Group_226768" data-name="Group 226768" transform="translate(0.897 0.911)">
      <path id="Path_259758" data-name="Path 259758" d="M332.72,403.131a3.957,3.957,0,0,0-2.007-7h0a3.826,3.826,0,0,0-2.834.835,3.933,3.933,0,0,0,2.427,7.025A3.827,3.827,0,0,0,332.72,403.131Zm-2.03-6.786a3.74,3.74,0,0,1,1.894,6.617,3.61,3.61,0,0,1-2.674.788,3.74,3.74,0,0,1-1.894-6.617,3.612,3.612,0,0,1,2.278-.81A3.664,3.664,0,0,1,330.69,396.344Z" transform="translate(-326.413 -396.106)" fill="#d8d0ab"/>
    </g>
    <g id="Group_226769" data-name="Group 226769" transform="translate(1.002 1.071)">
      <path id="Path_259759" data-name="Path 259759" d="M331.69,406.453a8.685,8.685,0,0,0,1.559-1.191,17.18,17.18,0,0,0-3.244,2.2A8.682,8.682,0,0,0,331.69,406.453Z" transform="translate(-326.28 -403.64)" fill="#d8d0ab"/>
      <path id="Path_259760" data-name="Path 259760" d="M347.817,417.378a8.683,8.683,0,0,0,1.559-1.191,17.194,17.194,0,0,0-3.244,2.2A8.653,8.653,0,0,0,347.817,417.378Z" transform="translate(-345.538 -412.443)" fill="#d8d0ab"/>
      <path id="Path_259761" data-name="Path 259761" d="M336.294,417.789a8.68,8.68,0,0,0,1.191,1.559,17.2,17.2,0,0,0-2.2-3.244A8.66,8.66,0,0,0,336.294,417.789Z" transform="translate(-331.545 -412.379)" fill="#d8d0ab"/>
      <path id="Path_259762" data-name="Path 259762" d="M347.219,401.664a8.663,8.663,0,0,0,1.191,1.559,17.21,17.21,0,0,0-2.2-3.244A8.651,8.651,0,0,0,347.219,401.664Z" transform="translate(-344.591 -399.385)" fill="#d8d0ab"/>
      <path id="Path_259763" data-name="Path 259763" d="M343.093,398.873a8.675,8.675,0,0,0,.26-1.945,17.209,17.209,0,0,0-.74,3.847A8.656,8.656,0,0,0,343.093,398.873Z" transform="translate(-338.845 -396.928)" fill="#d8d0ab"/>
      <path id="Path_259764" data-name="Path 259764" d="M346.771,418a8.68,8.68,0,0,0,.26-1.945,17.217,17.217,0,0,0-.74,3.847A8.658,8.658,0,0,0,346.771,418Z" transform="translate(-343.237 -412.341)" fill="#d8d0ab"/>
      <path id="Path_259765" data-name="Path 259765" d="M328.858,416.744a8.679,8.679,0,0,0,1.945.26,17.212,17.212,0,0,0-3.847-.74A8.652,8.652,0,0,0,328.858,416.744Z" transform="translate(-323.24 -412.496)" fill="#d8d0ab"/>
      <path id="Path_259766" data-name="Path 259766" d="M347.986,413.066a8.678,8.678,0,0,0,1.945.26,17.2,17.2,0,0,0-3.847-.74A8.658,8.658,0,0,0,347.986,413.066Z" transform="translate(-346.083 -409.532)" fill="#d8d0ab"/>
      <path id="Path_259767" data-name="Path 259767" d="M328.934,412.906a8.66,8.66,0,0,0,1.9-.5,17.213,17.213,0,0,0-3.84.776A8.667,8.667,0,0,0,328.934,412.906Z" transform="translate(-323.276 -409.389)" fill="#d8d0ab"/>
      <path id="Path_259768" data-name="Path 259768" d="M348.027,416.762a8.661,8.661,0,0,0,1.9-.5,17.206,17.206,0,0,0-3.84.776A8.664,8.664,0,0,0,348.027,416.762Z" transform="translate(-346.077 -412.496)" fill="#d8d0ab"/>
      <path id="Path_259769" data-name="Path 259769" d="M342.714,418a8.663,8.663,0,0,0,.5,1.9,17.21,17.21,0,0,0-.776-3.84A8.667,8.667,0,0,0,342.714,418Z" transform="translate(-338.667 -412.341)" fill="#d8d0ab"/>
      <path id="Path_259770" data-name="Path 259770" d="M346.57,398.907a8.668,8.668,0,0,0,.5,1.9,17.208,17.208,0,0,0-.776-3.84A8.665,8.665,0,0,0,346.57,398.907Z" transform="translate(-343.272 -396.957)" fill="#d8d0ab"/>
      <path id="Path_259771" data-name="Path 259771" d="M336.618,401.57a8.674,8.674,0,0,0,.99-1.694,17.181,17.181,0,0,0-2.167,3.264A8.666,8.666,0,0,0,336.618,401.57Z" transform="translate(-331.697 -399.302)" fill="#d8d0ab"/>
      <path id="Path_259772" data-name="Path 259772" d="M347.392,417.8a8.678,8.678,0,0,0,.99-1.694,17.205,17.205,0,0,0-2.167,3.264A8.659,8.659,0,0,0,347.392,417.8Z" transform="translate(-344.564 -412.378)" fill="#d8d0ab"/>
      <path id="Path_259773" data-name="Path 259773" d="M331.473,417.365a8.654,8.654,0,0,0,1.694.99,17.2,17.2,0,0,0-3.264-2.167A8.665,8.665,0,0,0,331.473,417.365Z" transform="translate(-326.178 -412.444)" fill="#d8d0ab"/>
      <path id="Path_259774" data-name="Path 259774" d="M347.7,406.592a8.677,8.677,0,0,0,1.694.99,17.166,17.166,0,0,0-3.264-2.167A8.676,8.676,0,0,0,347.7,406.592Z" transform="translate(-345.557 -403.763)" fill="#d8d0ab"/>
    </g>
    <path id="Path_259775" data-name="Path 259775" d="M338.33,405.876a2.567,2.567,0,1,1-2.279-2.865A2.575,2.575,0,0,1,338.33,405.876Z" transform="translate(-330.994 -400.747)" fill="#d8d0ab"/>
    <path id="Path_259776" data-name="Path 259776" d="M339.406,406.253a2.225,2.225,0,1,1-1.976-2.484A2.233,2.233,0,0,1,339.406,406.253Z" transform="translate(-332.41 -401.359)" fill="#efe8cb"/>
    <g id="Group_226770" data-name="Group 226770" transform="translate(3.708 2.623)">
      <path id="Path_259777" data-name="Path 259777" d="M339.628,406.154l.43-.169a1.966,1.966,0,0,0-1.53-1.05,1.938,1.938,0,0,0-1.34.353,2.048,2.048,0,0,1,.6-.115A2.076,2.076,0,0,1,339.628,406.154Z" transform="translate(-337.189 -404.923)" fill="#fff9de"/>
      <path id="Path_259778" data-name="Path 259778" d="M336.222,413.017a2.139,2.139,0,0,1,.106.577,2.108,2.108,0,0,1-.317,1.207,2,2,0,0,0,.6-1.937Z" transform="translate(-333.564 -411.322)" fill="#fff9de"/>
    </g>
  </g>
  <g id="Group_226775" data-name="Group 226775" transform="translate(55.88 14.005)">
    <ellipse id="Ellipse_5447" data-name="Ellipse 5447" cx="4.784" cy="4.852" rx="4.784" ry="4.852" transform="translate(0 0)" fill="#3f3232"/>
    <ellipse id="Ellipse_5448" data-name="Ellipse 5448" cx="4.479" cy="4.543" rx="4.479" ry="4.543" transform="translate(0.304 0.29)" fill="#4f4141"/>
    <path id="Path_259779" data-name="Path 259779" d="M96.448,396.688a3.832,3.832,0,1,0,3.355,4.218A3.792,3.792,0,0,0,96.448,396.688Z" transform="translate(-91.263 -395.647)" fill="#231a1a"/>
    <path id="Path_259780" data-name="Path 259780" d="M97.585,399.717a3.522,3.522,0,1,0,3.106,3.876A3.506,3.506,0,0,0,97.585,399.717Z" transform="translate(-92.43 -398.089)" fill="#352929"/>
    <path id="Path_259781" data-name="Path 259781" d="M102.93,407.346a2.788,2.788,0,1,1-2.475-3.111A2.8,2.8,0,0,1,102.93,407.346Z" transform="translate(-95.375 -401.732)" fill="#231a1a"/>
    <g id="Group_226772" data-name="Group 226772" transform="translate(0.897 0.911)">
      <path id="Path_259782" data-name="Path 259782" d="M98.017,403.131a3.957,3.957,0,0,0-2.007-7h0a3.826,3.826,0,0,0-2.834.835,3.933,3.933,0,0,0,2.427,7.025A3.827,3.827,0,0,0,98.017,403.131Zm-2.03-6.786a3.74,3.74,0,0,1,1.894,6.617,3.61,3.61,0,0,1-2.674.788,3.74,3.74,0,0,1-1.894-6.617,3.612,3.612,0,0,1,2.278-.81A3.664,3.664,0,0,1,95.987,396.344Z" transform="translate(-91.71 -396.106)" fill="#d8d0ab"/>
    </g>
    <g id="Group_226773" data-name="Group 226773" transform="translate(1.002 1.071)">
      <path id="Path_259783" data-name="Path 259783" d="M96.989,406.453a8.684,8.684,0,0,0,1.559-1.191,17.18,17.18,0,0,0-3.244,2.2A8.676,8.676,0,0,0,96.989,406.453Z" transform="translate(-91.578 -403.64)" fill="#d8d0ab"/>
      <path id="Path_259784" data-name="Path 259784" d="M113.115,417.378a8.682,8.682,0,0,0,1.559-1.191,17.21,17.21,0,0,0-3.244,2.2A8.654,8.654,0,0,0,113.115,417.378Z" transform="translate(-110.837 -412.443)" fill="#d8d0ab"/>
      <path id="Path_259785" data-name="Path 259785" d="M101.592,417.789a8.68,8.68,0,0,0,1.191,1.559,17.2,17.2,0,0,0-2.2-3.244A8.659,8.659,0,0,0,101.592,417.789Z" transform="translate(-96.843 -412.379)" fill="#d8d0ab"/>
      <path id="Path_259786" data-name="Path 259786" d="M112.517,401.664a8.666,8.666,0,0,0,1.191,1.559,17.208,17.208,0,0,0-2.2-3.244A8.664,8.664,0,0,0,112.517,401.664Z" transform="translate(-109.889 -399.385)" fill="#d8d0ab"/>
      <path id="Path_259787" data-name="Path 259787" d="M108.391,398.873a8.676,8.676,0,0,0,.26-1.945,17.21,17.21,0,0,0-.74,3.847A8.656,8.656,0,0,0,108.391,398.873Z" transform="translate(-104.143 -396.928)" fill="#d8d0ab"/>
      <path id="Path_259788" data-name="Path 259788" d="M112.069,418a8.682,8.682,0,0,0,.26-1.945,17.211,17.211,0,0,0-.74,3.847A8.66,8.66,0,0,0,112.069,418Z" transform="translate(-108.535 -412.341)" fill="#d8d0ab"/>
      <path id="Path_259789" data-name="Path 259789" d="M94.156,416.744A8.677,8.677,0,0,0,96.1,417a8.652,8.652,0,0,0-1.9-.48,8.675,8.675,0,0,0-1.945-.26A8.652,8.652,0,0,0,94.156,416.744Z" transform="translate(-88.538 -412.496)" fill="#d8d0ab"/>
      <path id="Path_259790" data-name="Path 259790" d="M113.284,413.066a8.678,8.678,0,0,0,1.945.26,17.2,17.2,0,0,0-3.847-.74A8.656,8.656,0,0,0,113.284,413.066Z" transform="translate(-111.381 -409.532)" fill="#d8d0ab"/>
      <path id="Path_259791" data-name="Path 259791" d="M94.232,412.906a8.66,8.66,0,0,0,1.9-.5,17.209,17.209,0,0,0-3.84.776A8.666,8.666,0,0,0,94.232,412.906Z" transform="translate(-88.574 -409.389)" fill="#d8d0ab"/>
      <path id="Path_259792" data-name="Path 259792" d="M113.324,416.762a8.665,8.665,0,0,0,1.9-.5,17.211,17.211,0,0,0-3.84.776A8.664,8.664,0,0,0,113.324,416.762Z" transform="translate(-111.375 -412.496)" fill="#d8d0ab"/>
      <path id="Path_259793" data-name="Path 259793" d="M108.012,418a8.662,8.662,0,0,0,.5,1.9,17.213,17.213,0,0,0-.776-3.84A8.667,8.667,0,0,0,108.012,418Z" transform="translate(-103.965 -412.341)" fill="#d8d0ab"/>
      <path id="Path_259794" data-name="Path 259794" d="M111.868,398.907a8.669,8.669,0,0,0,.5,1.9,17.177,17.177,0,0,0-.776-3.84A8.663,8.663,0,0,0,111.868,398.907Z" transform="translate(-108.57 -396.957)" fill="#d8d0ab"/>
      <path id="Path_259795" data-name="Path 259795" d="M101.916,401.57a8.677,8.677,0,0,0,.99-1.694,17.183,17.183,0,0,0-2.167,3.264A8.671,8.671,0,0,0,101.916,401.57Z" transform="translate(-96.995 -399.302)" fill="#d8d0ab"/>
      <path id="Path_259796" data-name="Path 259796" d="M112.69,417.8a8.666,8.666,0,0,0,.99-1.694,17.191,17.191,0,0,0-2.167,3.264A8.674,8.674,0,0,0,112.69,417.8Z" transform="translate(-109.862 -412.378)" fill="#d8d0ab"/>
      <path id="Path_259797" data-name="Path 259797" d="M96.771,417.365a8.655,8.655,0,0,0,1.694.99,17.2,17.2,0,0,0-3.264-2.167A8.663,8.663,0,0,0,96.771,417.365Z" transform="translate(-91.476 -412.444)" fill="#d8d0ab"/>
      <path id="Path_259798" data-name="Path 259798" d="M113,406.592a8.683,8.683,0,0,0,1.694.99,17.166,17.166,0,0,0-3.264-2.167A8.676,8.676,0,0,0,113,406.592Z" transform="translate(-110.855 -403.763)" fill="#d8d0ab"/>
    </g>
    <path id="Path_259799" data-name="Path 259799" d="M103.628,405.876a2.567,2.567,0,1,1-2.279-2.865A2.575,2.575,0,0,1,103.628,405.876Z" transform="translate(-96.292 -400.747)" fill="#d8d0ab"/>
    <path id="Path_259800" data-name="Path 259800" d="M104.7,406.253a2.225,2.225,0,1,1-1.976-2.484A2.233,2.233,0,0,1,104.7,406.253Z" transform="translate(-97.708 -401.359)" fill="#efe8cb"/>
    <g id="Group_226774" data-name="Group 226774" transform="translate(3.708 2.623)">
      <path id="Path_259801" data-name="Path 259801" d="M104.926,406.154l.43-.169a1.966,1.966,0,0,0-1.53-1.05,1.939,1.939,0,0,0-1.34.353,2.048,2.048,0,0,1,.6-.115A2.076,2.076,0,0,1,104.926,406.154Z" transform="translate(-102.487 -404.923)" fill="#fff9de"/>
      <path id="Path_259802" data-name="Path 259802" d="M101.52,413.017a2.139,2.139,0,0,1,.106.577,2.109,2.109,0,0,1-.318,1.207,2,2,0,0,0,.642-1.27,2.018,2.018,0,0,0-.042-.666Z" transform="translate(-98.862 -411.322)" fill="#fff9de"/>
    </g>
  </g>
  <rect id="Rectangle_24250" data-name="Rectangle 24250" width="35.026" height="0.276" transform="translate(20.282 19.892)" fill="#c9c2af"/>
  <path id="Path_259803" data-name="Path 259803" d="M321.808,328.752l-3.8,6.056h1.366l2.714-6.056Z" transform="translate(-301.489 -326.919)" fill="#2b1f27"/>
</svg>
