<svg id="Group_2405" data-name="Group 2405" xmlns="http://www.w3.org/2000/svg" width="22.107" height="16.839" viewBox="0 0 22.107 16.839">
  <path id="Path_16" data-name="Path 16" d="M20.164,61H1.943A1.946,1.946,0,0,0,0,62.943V75.9a1.946,1.946,0,0,0,1.943,1.943H20.164A1.946,1.946,0,0,0,22.107,75.9V62.943A1.946,1.946,0,0,0,20.164,61ZM19.9,62.3l-8.8,8.8L2.218,62.3ZM1.3,75.628V63.205L7.534,69.39Zm.916.916L8.454,70.3l2.187,2.168a.648.648,0,0,0,.914,0l2.133-2.133L19.9,76.544Zm18.6-.916L14.6,69.42l6.208-6.208Z" transform="translate(0 -61)" fill="#b2bac1"/>
</svg>
