<svg xmlns="http://www.w3.org/2000/svg" width="15.891" height="11.173" viewBox="0 0 15.891 11.173">
  <g id="email_3_" data-name="email (3)" transform="translate(0 -76)">
    <g id="Group_226509" data-name="Group 226509" transform="translate(0.814 82.246)">
      <g id="Group_226508" data-name="Group 226508" transform="translate(0 0)">
        <path id="Path_257841" data-name="Path 257841" d="M35.709,277.251l-1.331,1.335a1.473,1.473,0,0,1-2.041,0l-1.331-1.335-4.78,4.8a1.383,1.383,0,0,0,.583.131h13.1a1.382,1.382,0,0,0,.583-.131Z" transform="translate(-26.226 -277.251)" fill="#fff"/>
      </g>
    </g>
    <g id="Group_226511" data-name="Group 226511" transform="translate(0.814 76)">
      <g id="Group_226510" data-name="Group 226510" transform="translate(0 0)">
        <path id="Path_257842" data-name="Path 257842" d="M39.908,76h-13.1a1.382,1.382,0,0,0-.583.131l5.108,5.125h0L33,82.924a.559.559,0,0,0,.722,0l1.661-1.666h0l5.108-5.125A1.382,1.382,0,0,0,39.908,76Z" transform="translate(-26.228 -76)" fill="#fff"/>
      </g>
    </g>
    <g id="Group_226513" data-name="Group 226513" transform="translate(0 76.782)">
      <g id="Group_226512" data-name="Group 226512">
        <path id="Path_257843" data-name="Path 257843" d="M.149,101.212a1.38,1.38,0,0,0-.149.614v8.38a1.379,1.379,0,0,0,.149.614l4.788-4.8Z" transform="translate(0 -101.212)" fill="#fff"/>
      </g>
    </g>
    <g id="Group_226515" data-name="Group 226515" transform="translate(10.954 76.782)">
      <g id="Group_226514" data-name="Group 226514" transform="translate(0 0)">
        <path id="Path_257844" data-name="Path 257844" d="M357.721,101.21l-4.788,4.8,4.788,4.8a1.379,1.379,0,0,0,.149-.614v-8.38A1.379,1.379,0,0,0,357.721,101.21Z" transform="translate(-352.933 -101.21)" fill="#fff"/>
      </g>
    </g>
  </g>
</svg>
