<svg xmlns="http://www.w3.org/2000/svg" width="24.349" height="14.61" viewBox="0 0 24.349 14.61">
  <g id="mastercard" transform="translate(0 -100.8)">
    <path id="Path_111536" data-name="Path 111536" d="M216.21,108.1a7.3,7.3,0,1,1-14.61,0h0a7.3,7.3,0,1,1,14.61,0Z" transform="translate(-191.86 0)" fill="#ffb600"/>
    <path id="Path_111537" data-name="Path 111537" d="M208.9,100.8a7.324,7.324,0,0,1,7.3,7.3h0a7.3,7.3,0,0,1-14.61,0" transform="translate(-191.86)" fill="#f7981d"/>
    <path id="Path_111538" data-name="Path 111538" d="M352.8,100.8a7.324,7.324,0,0,1,7.3,7.3h0a7.3,7.3,0,0,1-7.3,7.3" transform="translate(-335.755)" fill="#ff8500"/>
    <path id="Path_111539" data-name="Path 111539" d="M7.228,100.8A7.305,7.305,0,0,0,7.3,115.41a7.39,7.39,0,0,0,4.909-1.894h0a6.945,6.945,0,0,0,.734-.773H11.44a8.914,8.914,0,0,1-.541-.734h2.59a4.951,4.951,0,0,0,.425-.773h-3.44a4.607,4.607,0,0,1-.309-.773h4.02a7.675,7.675,0,0,0,.386-2.319,9.976,9.976,0,0,0-.155-1.546H9.933a5.65,5.65,0,0,1,.193-.773h4.02a4.607,4.607,0,0,0-.309-.773h-3.4a7.665,7.665,0,0,1,.425-.773h2.59a3.675,3.675,0,0,0-.58-.773H11.44a6.587,6.587,0,0,1,.734-.734,7.132,7.132,0,0,0-4.909-1.894C7.266,100.8,7.266,100.8,7.228,100.8Z" transform="translate(0)" fill="#ff5050"/>
    <path id="Path_111540" data-name="Path 111540" d="M0,109.628a7.3,7.3,0,0,0,7.3,7.3,7.39,7.39,0,0,0,4.909-1.894h0a6.946,6.946,0,0,0,.734-.773H11.44a8.92,8.92,0,0,1-.541-.734h2.59a4.952,4.952,0,0,0,.425-.773h-3.44a4.607,4.607,0,0,1-.309-.773h4.02a7.675,7.675,0,0,0,.386-2.319,9.976,9.976,0,0,0-.155-1.546H9.933a5.651,5.651,0,0,1,.193-.773h4.02a4.606,4.606,0,0,0-.309-.773h-3.4a7.665,7.665,0,0,1,.425-.773h2.59a3.675,3.675,0,0,0-.58-.773H11.44a6.587,6.587,0,0,1,.734-.734A7.132,7.132,0,0,0,7.266,102.4H7.228" transform="translate(0 -1.523)" fill="#e52836"/>
    <path id="Path_111541" data-name="Path 111541" d="M149.677,116.932a7.39,7.39,0,0,0,4.909-1.894h0a6.945,6.945,0,0,0,.734-.773h-1.507a8.923,8.923,0,0,1-.541-.734h2.59a4.95,4.95,0,0,0,.425-.773h-3.44a4.606,4.606,0,0,1-.309-.773h4.02a7.675,7.675,0,0,0,.386-2.319,9.976,9.976,0,0,0-.155-1.546h-4.483a5.65,5.65,0,0,1,.193-.773h4.02a4.606,4.606,0,0,0-.309-.773h-3.4a7.668,7.668,0,0,1,.425-.773h2.59a3.675,3.675,0,0,0-.58-.773h-1.43a6.587,6.587,0,0,1,.734-.734,7.132,7.132,0,0,0-4.909-1.894H149.6" transform="translate(-142.372 -1.523)" fill="#cb2026"/>
    <g id="Group_53841" data-name="Group 53841" transform="translate(0.696 106.211)">
      <path id="Path_111542" data-name="Path 111542" d="M182.721,223.4l.116-.657a1.674,1.674,0,0,1-.193.039c-.271,0-.309-.155-.271-.232l.232-1.353h.425l.116-.734h-.386l.077-.464h-.773s-.464,2.551-.464,2.86a.58.58,0,0,0,.618.657A1.186,1.186,0,0,0,182.721,223.4Z" transform="translate(-173.522 -219.652)" fill="#fff"/>
      <path id="Path_111543" data-name="Path 111543" d="M210.4,230.443a1.229,1.229,0,0,0,1.353,1.353,2.006,2.006,0,0,0,.812-.116l.155-.734a2.317,2.317,0,0,1-.812.193c-.85,0-.7-.618-.7-.618H212.8a5.012,5.012,0,0,0,.116-.7,1.047,1.047,0,0,0-1.121-1.121C210.98,228.626,210.4,229.477,210.4,230.443Zm1.353-1.121c.425,0,.348.5.348.541h-.85C211.25,229.824,211.328,229.322,211.753,229.322Z" transform="translate(-200.931 -227.931)" fill="#fff"/>
      <path id="Path_111544" data-name="Path 111544" d="M298.126,216.549l.155-.85a1.9,1.9,0,0,1-.657.193c-.541,0-.773-.425-.773-.889,0-.928.464-1.43,1-1.43a1.291,1.291,0,0,1,.7.232l.116-.812a2.718,2.718,0,0,0-.889-.193c-.889,0-1.778.773-1.778,2.242,0,.966.464,1.623,1.391,1.623A3.469,3.469,0,0,0,298.126,216.549Z" transform="translate(-282.395 -212.8)" fill="#fff"/>
      <path id="Path_111545" data-name="Path 111545" d="M87.869,227.2a2.738,2.738,0,0,0-.928.155l-.116.657a2.285,2.285,0,0,1,.85-.155c.271,0,.5.039.5.271,0,.155-.039.193-.039.193h-.348c-.657,0-1.391.271-1.391,1.16,0,.7.464.85.734.85a1.161,1.161,0,0,0,.812-.348l-.039.309h.7l.309-2.126A.916.916,0,0,0,87.869,227.2Zm.155,1.739c0,.116-.077.734-.541.734a.3.3,0,0,1-.309-.309c0-.193.116-.464.7-.464A.61.61,0,0,0,88.023,228.939Z" transform="translate(-82.922 -226.504)" fill="#fff"/>
      <path id="Path_111546" data-name="Path 111546" d="M136.089,229.569a.991.991,0,0,0,1.159-1c0-.966-.928-.773-.928-1.16,0-.193.155-.271.425-.271.116,0,.541.039.541.039l.116-.7a2.935,2.935,0,0,0-.734-.077c-.58,0-1.16.232-1.16,1,0,.889.966.812.966,1.16,0,.232-.271.271-.464.271a2.528,2.528,0,0,1-.7-.116l-.116.7C135.239,229.492,135.432,229.569,136.089,229.569Z" transform="translate(-129.364 -225.743)" fill="#fff"/>
      <path id="Path_111547" data-name="Path 111547" d="M429.4,214.4l-.155,1.044a1.072,1.072,0,0,0-.734-.387c-.7,0-1.314.85-1.314,1.855,0,.618.309,1.275.966,1.275a1.032,1.032,0,0,0,.734-.309l-.039.271h.773l.58-3.71Zm-.348,2.048c0,.425-.193.966-.618.966-.271,0-.425-.232-.425-.618,0-.618.271-1,.618-1C428.9,215.791,429.055,215.985,429.055,216.448Z" transform="translate(-407.257 -214.323)" fill="#fff"/>
      <path id="Path_111548" data-name="Path 111548" d="M15.134,218.11l.464-2.783.077,2.783h.541l1-2.783L16.8,218.11h.812l.618-3.71H16.951l-.773,2.28-.039-2.28H15.018l-.618,3.71Z" transform="translate(-14.4 -214.323)" fill="#fff"/>
      <path id="Path_111549" data-name="Path 111549" d="M260.85,231.815c.232-1.275.271-2.319.812-2.126a3.034,3.034,0,0,1,.271-.889h-.155c-.348,0-.618.464-.618.464l.077-.425H260.5l-.5,3.015h.85Z" transform="translate(-248.135 -228.027)" fill="#fff"/>
      <path id="Path_111550" data-name="Path 111550" d="M347.869,227.2a2.738,2.738,0,0,0-.928.155l-.116.657a2.284,2.284,0,0,1,.85-.155c.271,0,.5.039.5.271,0,.155-.039.193-.039.193h-.348c-.657,0-1.391.271-1.391,1.16,0,.7.464.85.734.85a1.161,1.161,0,0,0,.812-.348l-.039.309h.7l.309-2.126A.9.9,0,0,0,347.869,227.2Zm.193,1.739c0,.116-.077.734-.541.734a.3.3,0,0,1-.309-.309c0-.193.116-.464.7-.464C348.023,228.939,348.023,228.939,348.062,228.939Z" transform="translate(-330.36 -226.504)" fill="#fff"/>
      <path id="Path_111551" data-name="Path 111551" d="M395.25,231.815c.232-1.275.271-2.319.812-2.126a3.034,3.034,0,0,1,.271-.889h-.155c-.348,0-.618.464-.618.464l.077-.425H394.9l-.5,3.015h.85Z" transform="translate(-376.041 -228.027)" fill="#fff"/>
    </g>
    <g id="Group_53842" data-name="Group 53842" transform="translate(0.696 106.211)">
      <path id="Path_111552" data-name="Path 111552" d="M180,222.86a.58.58,0,0,0,.618.657,1.471,1.471,0,0,0,.58-.116l.116-.657a1.674,1.674,0,0,1-.193.039c-.271,0-.309-.155-.271-.232l.232-1.353h.425l.116-.734h-.386l.077-.464" transform="translate(-171.999 -219.652)" fill="#dce5e5"/>
      <path id="Path_111553" data-name="Path 111553" d="M218.4,230.443c0,1.082.348,1.353.966,1.353a2.006,2.006,0,0,0,.812-.116l.155-.734a2.317,2.317,0,0,1-.812.193c-.85,0-.7-.618-.7-.618h1.585a5.012,5.012,0,0,0,.116-.7A1.047,1.047,0,0,0,219.4,228.7C218.593,228.626,218.4,229.477,218.4,230.443Zm.966-1.121c.425,0,.5.5.5.541h-1C218.864,229.824,218.941,229.322,219.366,229.322Z" transform="translate(-208.544 -227.931)" fill="#dce5e5"/>
      <path id="Path_111554" data-name="Path 111554" d="M305.739,216.549l.155-.85a1.9,1.9,0,0,1-.657.193c-.541,0-.773-.425-.773-.889,0-.928.464-1.43,1-1.43a1.29,1.29,0,0,1,.7.232l.116-.812a2.718,2.718,0,0,0-.889-.193c-.889,0-1.391.773-1.391,2.242,0,.966.077,1.623,1,1.623A3.469,3.469,0,0,0,305.739,216.549Z" transform="translate(-290.009 -212.8)" fill="#dce5e5"/>
      <path id="Path_111555" data-name="Path 111555" d="M86.825,229.573a2.285,2.285,0,0,1,.85-.155c.271,0,.5.039.5.271,0,.155-.039.193-.039.193h-.348c-.657,0-1.391.271-1.391,1.159,0,.7.464.85.734.85a1.161,1.161,0,0,0,.812-.348l-.039.309h.7l.309-2.126c0-.889-.773-.928-1.082-.928m.58,1.662a1.265,1.265,0,0,1-.928.734.3.3,0,0,1-.309-.309c0-.193.116-.464.7-.464A3.158,3.158,0,0,0,88.41,230.462Z" transform="translate(-82.922 -228.027)" fill="#dce5e5"/>
      <path id="Path_111556" data-name="Path 111556" d="M136,229.492a3.271,3.271,0,0,0,.889.077.991.991,0,0,0,1.159-1c0-.966-.928-.773-.928-1.16,0-.193.155-.271.425-.271.116,0,.541.039.541.039l.116-.7a2.935,2.935,0,0,0-.734-.077c-.58,0-.773.232-.773,1,0,.889.58.812.58,1.16,0,.232-.271.271-.464.271" transform="translate(-130.125 -225.743)" fill="#dce5e5"/>
      <path id="Path_111557" data-name="Path 111557" d="M436.807,216.2a1.072,1.072,0,0,0-.734-.387c-.7,0-.928.85-.928,1.855,0,.618-.077,1.275.58,1.275a1.032,1.032,0,0,0,.734-.309l-.039.271h.773l.58-3.71m-1,2.01c0,.425-.348.966-.773.966-.271,0-.425-.232-.425-.618,0-.618.271-1,.618-1A.591.591,0,0,1,436.768,217.21Z" transform="translate(-414.815 -215.084)" fill="#dce5e5"/>
      <path id="Path_111558" data-name="Path 111558" d="M15.134,218.11l.464-2.783.077,2.783h.541l1-2.783L16.8,218.11h.812l.618-3.71H17.26l-1.082,2.28-.039-2.28h-.425L14.4,218.11Z" transform="translate(-14.4 -214.323)" fill="#dce5e5"/>
      <path id="Path_111559" data-name="Path 111559" d="M260.8,231.815h.812c.232-1.275.271-2.319.812-2.126a3.033,3.033,0,0,1,.271-.889h-.155c-.348,0-.618.464-.618.464l.077-.425" transform="translate(-248.896 -228.027)" fill="#dce5e5"/>
      <path id="Path_111560" data-name="Path 111560" d="M346.825,229.573a2.285,2.285,0,0,1,.85-.155c.271,0,.5.039.5.271,0,.155-.039.193-.039.193h-.348c-.657,0-1.391.271-1.391,1.159,0,.7.464.85.734.85a1.161,1.161,0,0,0,.812-.348l-.039.309h.7l.309-2.126c0-.889-.773-.928-1.082-.928m.58,1.662a1.265,1.265,0,0,1-.928.734.3.3,0,0,1-.309-.309c0-.193.116-.464.7-.464A3.4,3.4,0,0,0,348.41,230.462Z" transform="translate(-330.36 -228.027)" fill="#dce5e5"/>
      <path id="Path_111561" data-name="Path 111561" d="M395.2,231.815h.812c.232-1.275.271-2.319.812-2.126a3.033,3.033,0,0,1,.271-.889h-.155c-.348,0-.618.464-.618.464l.077-.425" transform="translate(-376.803 -228.027)" fill="#dce5e5"/>
    </g>
  </g>
</svg>
