<svg xmlns="http://www.w3.org/2000/svg" width="65.529" height="63.592" viewBox="0 0 65.529 63.592">
  <g id="password_1_" data-name="password (1)" transform="translate(0 -7.194)">
    <g id="Group_189974" data-name="Group 189974" transform="translate(0 7.194)">
      <path id="Path_198814" data-name="Path 198814" d="M20.7,353.618a.94.94,0,0,0-1.279-.337l-2.342,1.36v-2.706a.929.929,0,0,0-1.858,0v2.706l-2.342-1.36a.935.935,0,0,0-.942,1.615l2.356,1.373-2.356,1.373a.935.935,0,0,0,.942,1.615l2.342-1.36V360.6a.929.929,0,1,0,1.858,0V357.9l2.342,1.36a.935.935,0,0,0,.942-1.615L18,356.269l2.356-1.373A.931.931,0,0,0,20.7,353.618Z" transform="translate(-9.926 -304.725)" fill="#1aa9c9"/>
      <path id="Path_198815" data-name="Path 198815" d="M143.1,358.821a.94.94,0,0,0,1.279.337l2.342-1.36V360.5a.929.929,0,0,0,1.858,0V357.8l2.342,1.36a.935.935,0,0,0,.942-1.615l-2.356-1.373,2.356-1.373a.935.935,0,0,0-.942-1.615l-2.342,1.36v-2.706a.929.929,0,0,0-1.858,0v2.706l-2.342-1.346a.935.935,0,1,0-.942,1.615l2.356,1.373-2.356,1.36A.94.94,0,0,0,143.1,358.821Z" transform="translate(-123.725 -304.639)" fill="#1aa9c9"/>
      <path id="Path_198816" data-name="Path 198816" d="M131.5,457.519v1.642a.718.718,0,0,0,.713.713h11.025a.718.718,0,0,0,.713-.713v-1.642a.718.718,0,0,0-.713-.714H132.213A.71.71,0,0,0,131.5,457.519Z" transform="translate(-113.799 -396.283)" fill="#1aa9c9"/>
      <path id="Path_198817" data-name="Path 198817" d="M163.215,22.528h-.081V18.867A11.619,11.619,0,0,0,151.571,7.2,11.4,11.4,0,0,0,140.385,18.57v.35a.959.959,0,0,0,.956.956H144.4a.959.959,0,0,0,.956-.956v-.108a6.565,6.565,0,0,1,5.99-6.636,6.406,6.406,0,0,1,6.811,6.381v3.958H148.73v.013h-8.709a3,3,0,0,0-2.921,2.988V42.074a3,3,0,0,0,3,3h23.1a3,3,0,0,0,3-3V25.53A2.985,2.985,0,0,0,163.215,22.528Zm-9.773,12.021a.647.647,0,0,0-.3.606c.013,1.212.013,2.423,0,3.648h0a1.277,1.277,0,0,1-.686,1.225,1.422,1.422,0,0,1-2.127-1.225V35.141a.635.635,0,0,0-.269-.579,2.766,2.766,0,0,1-.915-3.419,2.83,2.83,0,0,1,5.411,1.117A2.563,2.563,0,0,1,153.442,34.549Z" transform="translate(-118.645 -7.194)" fill="#1aa9c9"/>
      <path id="Path_198818" data-name="Path 198818" d="M262.9,457.519v1.642a.718.718,0,0,0,.713.713h11.025a.718.718,0,0,0,.713-.713v-1.642a.718.718,0,0,0-.713-.714H263.613A.718.718,0,0,0,262.9,457.519Z" transform="translate(-227.511 -396.283)" fill="#1aa9c9"/>
      <path id="Path_198819" data-name="Path 198819" d="M274.5,358.821a.94.94,0,0,0,1.279.337l2.342-1.36V360.5a.929.929,0,0,0,1.858,0V357.8l2.342,1.36a.935.935,0,0,0,.942-1.615l-2.356-1.373,2.356-1.373a.935.935,0,0,0-.942-1.615l-2.342,1.36v-2.706a.929.929,0,1,0-1.858,0v2.706l-2.342-1.36a.935.935,0,0,0-.942,1.615l2.356,1.373-2.356,1.373A.94.94,0,0,0,274.5,358.821Z" transform="translate(-237.437 -304.639)" fill="#1aa9c9"/>
      <path id="Path_198820" data-name="Path 198820" d="M406.038,456.806H395.013a.718.718,0,0,0-.713.714v1.642a.718.718,0,0,0,.713.713h11.025a.718.718,0,0,0,.713-.713v-1.642A.718.718,0,0,0,406.038,456.806Z" transform="translate(-341.223 -396.283)" fill="#1aa9c9"/>
      <path id="Path_198821" data-name="Path 198821" d="M.713,459.875H11.738a.718.718,0,0,0,.713-.713v-1.642a.718.718,0,0,0-.713-.714H.713a.718.718,0,0,0-.713.714v1.642A.718.718,0,0,0,.713,459.875Z" transform="translate(0 -396.283)" fill="#1aa9c9"/>
      <path id="Path_198822" data-name="Path 198822" d="M405.957,358.821a.94.94,0,0,0,1.279.337l2.342-1.36V360.5a.929.929,0,0,0,1.858,0V357.8l2.342,1.36a.935.935,0,0,0,.942-1.615l-2.356-1.373,2.356-1.373a.935.935,0,0,0-.942-1.615l-2.342,1.36v-2.706a.929.929,0,0,0-1.858,0v2.706l-2.342-1.36a.935.935,0,0,0-.942,1.615l2.356,1.373-2.356,1.373A.928.928,0,0,0,405.957,358.821Z" transform="translate(-351.197 -304.639)" fill="#1aa9c9"/>
    </g>
  </g>
</svg>
