<svg xmlns="http://www.w3.org/2000/svg" width="46.149" height="49.247" viewBox="0 0 46.149 49.247">
  <g id="forgot" transform="translate(-15.937)">
    <g id="Group_58856" data-name="Group 58856" transform="translate(15.937)">
      <g id="Group_58855" data-name="Group 58855">
        <ellipse id="Ellipse_4848" data-name="Ellipse 4848" cx="1.5" cy="2" rx="1.5" ry="2" transform="translate(23.609 31.247)" fill="#1aa9c9"/>
        <path id="Path_123791" data-name="Path 123791" d="M47.56,45.367H23.626a3.849,3.849,0,0,1-3.845-3.845V25.759a3.849,3.849,0,0,1,3.845-3.845H51.308a3.914,3.914,0,0,1,1.062.118,1.922,1.922,0,0,0,1.059-3.7,7.639,7.639,0,0,0-2.121-.267H49v-6.78a11.537,11.537,0,0,0-23.068,0v6.78h-2.3a7.7,7.7,0,0,0-7.689,7.689V41.523a7.7,7.7,0,0,0,7.689,7.689H47.56a1.922,1.922,0,0,0,0-3.845ZM29.774,11.291a7.693,7.693,0,0,1,15.379,0v6.78H29.774Z" transform="translate(-15.937)" fill="#1aa9c9"/>
        <circle id="Ellipse_4849" data-name="Ellipse 4849" cx="2" cy="2" r="2" transform="translate(15.609 31.247)" fill="#1aa9c9"/>
        <path id="Path_123792" data-name="Path 123792" d="M367.653,267.748a6.827,6.827,0,0,0-13.653.078,1.922,1.922,0,0,0,3.845,0,2.982,2.982,0,0,1,5.964,0c0,.017,0,.035,0,.052A2.981,2.981,0,0,1,362,270.574a5.113,5.113,0,0,0-3.092,4.719v1.662a1.922,1.922,0,0,0,3.845,0v-1.662a1.274,1.274,0,0,1,.757-1.184,6.821,6.821,0,0,0,4.149-6.283C367.655,267.8,367.654,267.774,367.653,267.748Z" transform="translate(-321.506 -235.913)" fill="#1aa9c9"/>
        <circle id="Ellipse_4850" data-name="Ellipse 4850" cx="1.5" cy="1.5" r="1.5" transform="translate(37.609 46.247)" fill="#1aa9c9"/>
        <ellipse id="Ellipse_4851" data-name="Ellipse 4851" cx="1.5" cy="2" rx="1.5" ry="2" transform="translate(9.609 31.247)" fill="#1aa9c9"/>
      </g>
    </g>
  </g>
</svg>
