<svg xmlns="http://www.w3.org/2000/svg" width="19.128" height="19.129" viewBox="0 0 19.128 19.129">
  <g id="_003---Call" data-name="003---Call" transform="translate(0.502 0.521)">
    <path id="Shape" d="M8.5,10.649A7.307,7.307,0,0,1,6.289,6.5a.621.621,0,0,1,.178-.519l1.4-1.4a.624.624,0,0,0,.088-.773L5.727.353A.624.624,0,0,0,4.918.125L1.343,1.809A.621.621,0,0,0,1,2.429,17.279,17.279,0,0,0,6.262,12.882a17.274,17.274,0,0,0,10.452,5.262.621.621,0,0,0,.62-.343l1.684-3.575a.624.624,0,0,0-.226-.808l-3.458-2.226a.624.624,0,0,0-.773.087l-1.4,1.4a.621.621,0,0,1-.519.178A7.307,7.307,0,0,1,8.5,10.649Z" transform="translate(-0.997 -0.041)" fill="none" stroke="#b2bac1" stroke-width="1"/>
    <path id="Shape-2" data-name="Shape" d="M33.931,16.556a.624.624,0,0,1-.624-.624,4.688,4.688,0,0,0-4.683-4.683.624.624,0,1,1,0-1.249,5.938,5.938,0,0,1,5.931,5.931A.624.624,0,0,1,33.931,16.556Z" transform="translate(-19.57 -6.878)" fill="#b2bac1"/>
    <path id="Shape-3" data-name="Shape" d="M37.053,9.677a.624.624,0,0,1-.624-.624,7.813,7.813,0,0,0-7.8-7.8.624.624,0,1,1,0-1.249,9.063,9.063,0,0,1,9.053,9.053.624.624,0,0,1-.624.624Z" transform="translate(-19.57)" fill="#b2bac1"/>
  </g>
</svg>
