<svg xmlns="http://www.w3.org/2000/svg" width="12.564" height="12.563" viewBox="0 0 12.564 12.563">
  <g id="Page-1" transform="translate(0.003)">
    <g id="_003---Call" data-name="003---Call" transform="translate(-0.003)">
      <path id="Shape" d="M6.2,7.408A5.071,5.071,0,0,1,4.669,4.529a.431.431,0,0,1,.124-.36l.97-.97a.433.433,0,0,0,.061-.536L4.279.263A.433.433,0,0,0,3.718.105L1.237,1.273A.431.431,0,0,0,1,1.7,11.99,11.99,0,0,0,4.65,8.957,11.987,11.987,0,0,0,11.9,12.608a.431.431,0,0,0,.43-.238L13.5,9.889a.433.433,0,0,0-.157-.56l-2.4-1.545a.433.433,0,0,0-.536.061l-.97.97a.431.431,0,0,1-.36.124A5.071,5.071,0,0,1,6.2,7.408Z" transform="translate(-0.997 -0.047)" fill="#fff"/>
      <path id="Shape-2" data-name="Shape" d="M32.116,14.549a.433.433,0,0,1-.433-.433,3.253,3.253,0,0,0-3.249-3.249.433.433,0,0,1,0-.866,4.12,4.12,0,0,1,4.116,4.116A.433.433,0,0,1,32.116,14.549Z" transform="translate(-22.151 -7.834)" fill="#fff"/>
      <path id="Shape-3" data-name="Shape" d="M34.282,6.715a.433.433,0,0,1-.433-.433A5.421,5.421,0,0,0,28.433.866a.433.433,0,0,1,0-.866,6.289,6.289,0,0,1,6.282,6.282.433.433,0,0,1-.433.433Z" transform="translate(-22.151)" fill="#fff"/>
    </g>
  </g>
</svg>
