<svg xmlns="http://www.w3.org/2000/svg" width="18.618" height="24.442" viewBox="0 0 18.618 24.442">
  <g id="hospital" transform="translate(-61)">
    <path id="Path_18294" data-name="Path 18294" d="M70.309,0A9.368,9.368,0,0,0,61,9.357a9.214,9.214,0,0,0,1.862,5.571l6.874,9.228a.716.716,0,0,0,1.146,0l6.874-9.228a9.214,9.214,0,0,0,1.862-5.571A9.368,9.368,0,0,0,70.309,0Z" transform="translate(0)" fill="#ff6b6b"/>
    <path id="Path_18295" data-name="Path 18295" d="M265.309,9.357a9.214,9.214,0,0,1-1.862,5.571l-6.874,9.228a.687.687,0,0,1-.573.286V0A9.368,9.368,0,0,1,265.309,9.357Z" transform="translate(-185.691)" fill="#e62e77"/>
    <path id="Path_18296" data-name="Path 18296" d="M127.445,61a6.445,6.445,0,1,0,6.445,6.445A6.454,6.454,0,0,0,127.445,61Z" transform="translate(-57.136 -58.088)" fill="#f3f5f9"/>
    <path id="Path_18297" data-name="Path 18297" d="M262.445,67.445A6.454,6.454,0,0,1,256,73.889V61A6.454,6.454,0,0,1,262.445,67.445Z" transform="translate(-185.691 -58.088)" fill="#e2dff4"/>
  </g>
</svg>
