<svg id="Component_75_1" data-name="Component 75 – 1" xmlns="http://www.w3.org/2000/svg" width="24" height="24" viewBox="0 0 24 24">
  <g id="Path_259819" data-name="Path 259819" fill="#fff">
    <path d="M 12 23.25 C 8.995010375976562 23.25 6.1698899269104 22.07979965209961 4.045050144195557 19.9549503326416 C 1.920199990272522 17.83011054992676 0.75 15.00498962402344 0.75 12 C 0.75 8.995010375976562 1.920199990272522 6.1698899269104 4.045050144195557 4.045050144195557 C 6.1698899269104 1.920199990272522 8.995010375976562 0.75 12 0.75 C 15.00498962402344 0.75 17.83011054992676 1.920199990272522 19.9549503326416 4.045050144195557 C 22.07979965209961 6.1698899269104 23.25 8.995010375976562 23.25 12 C 23.25 15.00498962402344 22.07979965209961 17.83011054992676 19.9549503326416 19.9549503326416 C 17.83011054992676 22.07979965209961 15.00498962402344 23.25 12 23.25 Z" stroke="none"/>
    <path d="M 12 1.5 C 6.21027946472168 1.5 1.5 6.21027946472168 1.5 12 C 1.5 17.78972053527832 6.21027946472168 22.5 12 22.5 C 17.78972053527832 22.5 22.5 17.78972053527832 22.5 12 C 22.5 6.21027946472168 17.78972053527832 1.5 12 1.5 M 12 0 C 18.62742042541504 0 24 5.372579574584961 24 12 C 24 18.62742042541504 18.62742042541504 24 12 24 C 5.372579574584961 24 0 18.62742042541504 0 12 C 0 5.372579574584961 5.372579574584961 0 12 0 Z" stroke="none" fill="#f8ad73"/>
  </g>
  <g id="car-insurance" transform="translate(4 -3.7)">
    <path id="Path_259813" data-name="Path 259813" d="M10.071,29.541l-1.289-.278a.568.568,0,0,0-.682.556v.531c0,.43.328.531.733.531h1.415c.278,0,.556-.051.556-.354V30.45a.9.9,0,0,0-.733-.91Zm-1.491.809v-.556c0-.051.051-.1.1-.076L9.97,30a.462.462,0,0,1,.328.379c-.884,0-1.642,0-1.718-.025Z" transform="translate(-6.053 -14.61)" fill="#f8ad73"/>
    <path id="Path_259814" data-name="Path 259814" d="M15.49,12.227l-1.819-.859a3.091,3.091,0,0,0-1.9-.253l-.278-.556A1.343,1.343,0,0,0,10.259,9.7H4.346a1.32,1.32,0,0,0-1.238.834l-.985,2.047a1.234,1.234,0,0,0-1.011-.531H.682A.679.679,0,0,0,0,12.732v.278a.679.679,0,0,0,.682.682h.657a2.04,2.04,0,0,0-.4,1.263v1.516a2.478,2.478,0,0,0,.606,1.617v1.137a.906.906,0,0,0,.91.91h.935a.906.906,0,0,0,.91-.91v-.455H9.349a6.874,6.874,0,0,0,2.881,2.173.214.214,0,0,0,.177,0c.025-.025,3.765-1.39,3.765-4.8v-2.83a1.24,1.24,0,0,0-.682-1.087ZM3.563,10.736a.822.822,0,0,1,.783-.531h5.913a.866.866,0,0,1,.809.556l.227.48a1.546,1.546,0,0,0-.3.126l-1.819.859a1.2,1.2,0,0,0-.682,1.061H2.3A18.782,18.782,0,0,0,3.563,10.736ZM.505,13.01v-.278a.173.173,0,0,1,.177-.177h.43a.842.842,0,0,1,.733.531.444.444,0,0,1-.1.126H.682a.214.214,0,0,1-.177-.2ZM3.79,19.2a.4.4,0,0,1-.4.4h-.96a.385.385,0,0,1-.4-.4v-.733a2.026,2.026,0,0,0,1.011.278H3.79Zm-.783-.935A1.761,1.761,0,0,1,1.39,16.447V14.931a1.713,1.713,0,0,1,.48-1.162H8.49v2.224H5.711a.253.253,0,0,0-.253.253.239.239,0,0,0,.253.253h2.8a2.727,2.727,0,0,0,.076.48H5.711a.253.253,0,0,0-.253.253.239.239,0,0,0,.253.253H8.692a3.694,3.694,0,0,0,.354.783Zm12.659-2.123c0,2.8-2.83,4.093-3.335,4.3A4.871,4.871,0,0,1,9,16.143v-2.83a.692.692,0,0,1,.4-.632l1.819-.859a2.569,2.569,0,0,1,2.274,0l1.819.859a.737.737,0,0,1,.4.632v2.83Z" fill="#f8ad73"/>
    <path id="Path_259815" data-name="Path 259815" d="M43.5,20.923l-1.668-.783a1.874,1.874,0,0,0-1.642,0l-1.642.783a.29.29,0,0,0-.152.227V23.8a4.109,4.109,0,0,0,2.5,3.462.351.351,0,0,0,.227,0,4.109,4.109,0,0,0,2.5-3.462V21.15a.265.265,0,0,0-.126-.227ZM43.15,23.8a3.6,3.6,0,0,1-2.123,2.956A3.522,3.522,0,0,1,38.905,23.8V21.3l1.516-.733a1.452,1.452,0,0,1,1.213,0l1.516.733Z" transform="translate(-28.697 -7.66)" fill="#f8ad73"/>
    <path id="Path_259816" data-name="Path 259816" d="M43.691,31.481a.275.275,0,0,0-.354.051.25.25,0,0,0,.051.354l.96.733a.275.275,0,0,0,.354-.051l1.415-1.845a.253.253,0,0,0-.4-.3l-1.263,1.642Z" transform="translate(-32.345 -15.414)" fill="#f8ad73"/>
  </g>
</svg>
