<svg id="road" xmlns="http://www.w3.org/2000/svg" width="31.698" height="31.698" viewBox="0 0 31.698 31.698">
  <g id="Group_8726" data-name="Group 8726">
    <g id="Group_8725" data-name="Group 8725">
      <path id="Path_14263" data-name="Path 14263" d="M346.617,0a5.289,5.289,0,0,0-5.283,5.283c0,2.527,3.744,7.641,4.621,8.8,0,.376,0,.745-.009,1.084a.661.661,0,0,0,.643.678h.018a.661.661,0,0,0,.66-.643c.009-.348.009-.727.009-1.114.871-1.156,4.624-6.28,4.624-8.81A5.289,5.289,0,0,0,346.617,0Zm0,6.6a1.321,1.321,0,1,1,1.321-1.321A1.322,1.322,0,0,1,346.617,6.6Z" transform="translate(-320.202)" fill="#1aa9c9"/>
      <path id="Path_14264" data-name="Path 14264" d="M294.348,306.11a5.364,5.364,0,0,0-2.057,2.445.66.66,0,1,0,1.19.571A3.946,3.946,0,0,1,295,307.258a.66.66,0,1,0-.653-1.148Z" transform="translate(-274.135 -287.078)" fill="#1aa9c9"/>
      <path id="Path_14265" data-name="Path 14265" d="M187.667,460.111a7.23,7.23,0,0,1-2.3,1.207.661.661,0,0,0,.409,1.256,8.644,8.644,0,0,0,2.711-1.428.661.661,0,1,0-.82-1.036Z" transform="translate(-173.463 -431.492)" fill="#1aa9c9"/>
      <path id="Path_14266" data-name="Path 14266" d="M257.5,383.752a.659.659,0,0,0-.854.377,15.437,15.437,0,0,1-1.165,2.474.661.661,0,0,0,1.127.689,16.713,16.713,0,0,0,1.27-2.685A.661.661,0,0,0,257.5,383.752Z" transform="translate(-239.572 -359.952)" fill="#1aa9c9"/>
      <path id="Path_14267" data-name="Path 14267" d="M369.272,279.31a.662.662,0,0,0-.917.177c-.217.321-.662.763-2.008.884a.66.66,0,0,0,.059,1.318c.02,0,.04,0,.06,0a3.745,3.745,0,0,0,2.983-1.459A.66.66,0,0,0,369.272,279.31Z" transform="translate(-343.103 -261.912)" fill="#1aa9c9"/>
      <path id="Path_14268" data-name="Path 14268" d="M9.489,190.487c2.084-2.222,6.36-7.334,6.36-11.9a7.84,7.84,0,0,0-7.924-7.924A7.84,7.84,0,0,0,0,178.591c0,5.858,7.062,12.639,7.457,13.013l0,0,.012.012a.62.62,0,0,0,.092.058.646.646,0,0,0,.114.072.659.659,0,0,0,.248.05q.722,0,1.372-.05a.66.66,0,0,0,.609-.708A.648.648,0,0,0,9.489,190.487Zm-1.565-7.933a3.962,3.962,0,1,1,3.962-3.962A3.967,3.967,0,0,1,7.924,182.554Z" transform="translate(0 -160.101)" fill="#1aa9c9"/>
    </g>
  </g>
</svg>
