<svg xmlns="http://www.w3.org/2000/svg" width="10.29" height="13.372" viewBox="0 0 10.29 13.372">
  <g id="user_2_" data-name="user (2)" transform="translate(-59)">
    <g id="Group_226804" data-name="Group 226804" transform="translate(59 8.096)">
      <path id="Path_259827" data-name="Path 259827" d="M68.768,315.276a.522.522,0,0,1-.522-.522,3.713,3.713,0,0,0-3.709-3.709h-.784a3.713,3.713,0,0,0-3.709,3.709.522.522,0,1,1-1.045,0A4.759,4.759,0,0,1,63.753,310h.784a4.759,4.759,0,0,1,4.753,4.753A.522.522,0,0,1,68.768,315.276Z" transform="translate(-59 -310)"/>
    </g>
    <g id="Group_226805" data-name="Group 226805" transform="translate(60.567)">
      <path id="Path_259828" data-name="Path 259828" d="M122.526,7.052a3.526,3.526,0,1,1,3.526-3.526A3.53,3.53,0,0,1,122.526,7.052Zm0-6.007a2.481,2.481,0,1,0,2.481,2.481A2.484,2.484,0,0,0,122.526,1.045Z" transform="translate(-119 0)"/>
    </g>
  </g>
</svg>
